PathFileType	4	(X/Y/Z)	/Users/niels/Desktop/University/Third Semester/Perception and Action/Exam/Gymnastics Motion Tracking/Code for Gym Tracking/Analyzed Data/Webcam_Backflip/id1_4_trajectory_Sports2D/id1_4_trajectory_Sports2D_px_person00.trc
DataRate	CameraRate	NumFrames	NumMarkers	Units	OrigDataRate	OrigDataStartFrame	OrigNumFrames
29.874476987447697	29.874476987447697	7	22	m	29.874476987447697	29	239
Frame#	Time	Hip			RHip			RKnee			RAnkle			RBigToe			RSmallToe			RHeel			LHip			LKnee			LAnkle			LBigToe			LSmallToe			LHeel			Neck			Head			Nose			RShoulder			RElbow			RWrist			LShoulder			LElbow			LWrist		
		X1	Y1	Z1	X2	Y2	Z2	X3	Y3	Z3	X4	Y4	Z4	X5	Y5	Z5	X6	Y6	Z6	X7	Y7	Z7	X8	Y8	Z8	X9	Y9	Z9	X10	Y10	Z10	X11	Y11	Z11	X12	Y12	Z12	X13	Y13	Z13	X14	Y14	Z14	X15	Y15	Z15	X16	Y16	Z16	X17	Y17	Z17	X18	Y18	Z18	X19	Y19	Z19	X20	Y20	Z20	X21	Y21	Z21	X22	Y22	Z22
29	0.9707282913165266	0.9191513308456999	-0.6077117573679883	0.0	0.9188460523130088	-0.6031258271941566	0.0	0.9232732320495448	-0.709390161746937	0.0	0.907400690478126	-0.8184521452420929	0.0	0.9487888646892639	-0.8339024348854662	0.0	0.9429848712029939	-0.8385766856893426	0.0	0.8966000658982118	-0.8332770963980249	0.0	0.9246713129999616	-0.6018386658990493	0.0	0.9244506369823948	-0.7047012814774689	0.0	0.9092206849005828	-0.8122398376513816	0.0	0.8975446256614487	-0.7716727475251599	0.0	0.8951288372037101	-0.8268916048829016	0.0	0.8890756430842056	-0.827576590404401	0.0	0.9648162215924141	-0.4574754899863102	0.0	1.0142624135056948	-0.39576573731370157	0.0	1.0123807077655391	-0.4345293609547866	0.0	0.9524433670238994	-0.47349185360069773	0.0	0.8945348873638933	-0.5155116875465738	0.0	0.8508516391074782	-0.5684660076888293	0.0	0.950819097680312	-0.46994275156859866	0.0	0.891972899803284	-0.5121236954807852	0.0	0.8520884705743361	-0.563273274484113	0.0
30	1.004201680672269	0.9184427406509503	-0.6063148912844187	0.0	0.9188708592461866	-0.6015153392201611	0.0	0.9240078053917845	-0.7096617389401605	0.0	0.907928922155618	-0.8186924963459732	0.0	0.9491910924673803	-0.834196700141312	0.0	0.9430113301383951	-0.8391502399441212	0.0	0.8968397214937537	-0.8327921134978892	0.0	0.9245610636677781	-0.5999209948747883	0.0	0.9247263233064993	-0.7046278755783454	0.0	0.910311987349406	-0.8120165078498167	0.0	0.8784484621274572	-0.7639559156255024	0.0	0.8749315377546173	-0.8259434976319274	0.0	0.8849313349403967	-0.8270477824708976	0.0	0.9659540490095759	-0.45959236946794635	0.0	1.0187315355526434	-0.39777612164159987	0.0	1.0155989748030163	-0.43609136509969676	0.0	0.9545875168336457	-0.4727054192304968	0.0	0.8910061358024949	-0.5036929702403812	0.0	0.8407663310051572	-0.5448613429034421	0.0	0.9519672823527167	-0.4695415164042331	0.0	0.8880779700277524	-0.5002409996125635	0.0	0.8408959871379938	-0.5433497002865425	0.0
31	1.037675070028011	0.917071627986741	-0.6038732899070107	0.0	0.918251017256809	-0.5988494611117654	0.0	0.9249808805590256	-0.7086482276938582	0.0	0.9087878281783873	-0.8178095818004606	0.0	0.9497947214966892	-0.8341006213109856	0.0	0.9431528966068201	-0.8392211330513033	0.0	0.8975001953226841	-0.8315187159256322	0.0	0.9233212186756041	-0.5969797449795884	0.0	0.9252240415148527	-0.7034656522735863	0.0	0.9116898975798097	-0.8109790936674726	0.0	0.8707245288219239	-0.7707519362412515	0.0	0.86416669751169	-0.8244344048869687	0.0	0.881595359345221	-0.8257736039163017	0.0	0.9668821401530457	-0.4607623770958899	0.0	1.0232208927740047	-0.39957657444317396	0.0	1.0187877369523066	-0.4373431416459865	0.0	0.9567177530006684	-0.470894925276155	0.0	0.8898976008322836	-0.4910251498065462	0.0	0.8350590689407537	-0.5199105657583791	0.0	0.9527993010640404	-0.46823381870103287	0.0	0.8865377928084676	-0.4882105499479486	0.0	0.8340904293810728	-0.5228576702138006	0.0
32	1.0711484593837535	0.9149078098139403	-0.6003522047120868	0.0	0.9164266332610508	-0.595028738800934	0.0	0.9263679798865008	-0.7060191649303145	0.0	0.9099259351142176	-0.8153863570265223	0.0	0.9506179744809697	-0.8332120617520743	0.0	0.9434118970655667	-0.8382873645296064	0.0	0.8985039865926454	-0.8290320878711308	0.0	0.9208206412983325	-0.5930097691318998	0.0	0.9261732290200543	-0.7008476341176734	0.0	0.9131287000069782	-0.8086609775538901	0.0	0.878411560500091	-0.7867076831450351	0.0	0.8676511416293298	-0.8221367138293759	0.0	0.8807012631632009	-0.8233296560509754	0.0	0.9679749556360138	-0.46090690176714166	0.0	1.0277298510358752	-0.40124527698834983	0.0	1.0219612022179778	-0.4382714643164029	0.0	0.9588551964431893	-0.4682840434459189	0.0	0.8906446376399919	-0.4781004468765509	0.0	0.8325010691472915	-0.4949142044227462	0.0	0.953978130130759	-0.4662139478381233	0.0	0.8872089537674509	-0.47690320668474256	0.0	0.8310996402510891	-0.5026423721293963	0.0
33	1.1046218487394959	0.9118681810331658	-0.5958038834365946	0.0	0.9131640406234286	-0.5902089348690731	0.0	0.9283241121439092	-0.7016976310018819	0.0	0.9111445776719163	-0.8111622251405725	0.0	0.9515491610568086	-0.8310358350268576	0.0	0.9437135065489173	-0.8358516886121143	0.0	0.8995665836768659	-0.8249520201078413	0.0	0.9172183316049067	-0.5882096757863201	0.0	0.9277527290491365	-0.6967234406236917	0.0	0.9143600595098785	-0.804661769784353	0.0	0.8974367067331706	-0.8022824263794963	0.0	0.8834833390424935	-0.8189277129133633	0.0	0.8829632300789417	-0.8193300245741848	0.0	0.9695277881634091	-0.46013810711881886	0.0	1.0321128415016552	-0.40291266589483804	0.0	1.0250801645456062	-0.438921200521113	0.0	0.9609141989843379	-0.4652164270795627	0.0	0.8925883211515543	-0.4656480641471703	0.0	0.8318875453262067	-0.47137299744936706	0.0	0.9559457839483314	-0.4638880428256842	0.0	0.8896558124206502	-0.4668492496631888	0.0	0.8311149739325224	-0.4830885971685748	0.0
34	1.138095238095238	0.9080377964782447	-0.5904848094704152	0.0	0.9086641009411903	-0.5848311872910481	0.0	0.930975010922321	-0.6958926533034417	0.0	0.9122214678467019	-0.8051882428796842	0.0	0.9524078349170485	-0.8272329816311113	0.0	0.9439640588675852	-0.8316494167571814	0.0	0.9003946959903262	-0.8191898210894895	0.0	0.9129974049438079	-0.5830172050724702	0.0	0.9301410529679816	-0.691320354864177	0.0	0.9152149952026325	-0.7989061012549393	0.0	0.9192428922978183	-0.8119661502335328	0.0	0.9048575923911338	-0.8149055108212332	0.0	0.8871740052314215	-0.8136814461700618	0.0	0.9716280533272224	-0.4587735214920284	0.0	1.036134802519711	-0.40476786288340943	0.0	1.0280585115421876	-0.4394916555231677	0.0	0.9627244286409352	-0.46210963451830894	0.0	0.8951854930402238	-0.4544496414886814	0.0	0.8323263746728657	-0.4508233598988604	0.0	0.9586961591087557	-0.46176515814242536	0.0	0.8932395800463236	-0.4581901008683317	0.0	0.8331140674653638	-0.4644349347278714	0.0
35	1.1715686274509804	0.9036353771104431	-0.5849382059564538	0.0	0.9034121775143019	-0.5795628164775074	0.0	0.9344146140870272	-0.6890539530364126	0.0	0.91304993796175	-0.797828451837294	0.0	0.9530862271325082	-0.8217936205489013	0.0	0.944157616954826	-0.8257605903256178	0.0	0.9008842154666373	-0.8120229380799339	0.0	0.9087032360591437	-0.578048453703861	0.0	0.9335599779864254	-0.6849846473148363	0.0	0.9156891815274099	-0.791701830114205	0.0	0.9371552207583719	-0.8150471626319596	0.0	0.924744560923879	-0.8103132973795718	0.0	0.8913302969653991	-0.8066815564156223	0.0	0.9741496507567126	-0.45732391842977016	0.0	1.0395593451381966	-0.40702096934144194	0.0	1.0307774884469412	-0.44038809511578925	0.0	0.9641255847767414	-0.4594514234664504	0.0	0.8979802998543115	-0.4451478285028772	0.0	0.8332394743149713	-0.434334890397279	0.0	0.961809849445773	-0.4603628256627919	0.0	0.8972838595918404	-0.4509525836292279	0.0	0.8359686231826555	-0.4473115071382763	0.0
